PathFileType	4	(X/Y/Z)	C:/Users/beibeiliu/ov580/test_trc/User3\out1_training_dense_right.trc
DataRate	CameraRate	NumFrames	NumMarkers	Units	OrigDataRate	OrigDataStartFrame	OrigNumFrames
120	120	18	19	mm	120	1	500
Frame#	Time	ThumbCMC			ThumbMCP			ThumbIP			ThumbTip			IndexMCP			IndexPIP			IndexTip			MiddleMCP			MiddlePIP			MiddleTip			RingMCP			RingPIP			RingTip			PinkyMCP			PinkyPIP			PinkyTip			BackHand1			BackHand2			BackHand3	
		X0	Y0	Z0	X1	Y1	Z1	X2	Y2	Z2	X3	Y3	Z3	X4	Y4	Z4	X5	Y5	Z5	X6	Y6	Z6	X7	Y7	Z7	X8	Y8	Z8	X9	Y9	Z9	X10	Y10	Z10	X11	Y11	Z11	X12	Y12	Z12	X13	Y13	Z13	X14	Y14	Z14	X15	Y15	Z15	X16	Y16	Z16	X17	Y17	Z17	X18	Y18	Z18	
0	0	115.087	44.9101	31.9692	93.5424	38.0137	7.79084	81.4408	30.6309	-18.7528	73.7876	23.3197	-37.897	137.403	56.0491	-42.4916	133.115	53.2304	-71.7693	127.443	52.3777	-92.5777	167.416	61.8215	-41.8435	166.764	62.9763	-70.03	173.245	61.5657	-101.511	184.929	55.6345	-30.5893	193.501	58.7662	-55.2897	205.231	57.5551	-81.0398	201.959	43.6448	-11.3549	218.183	43.7969	-27.0088	233.982	43.3437	-40.9703	174.641	62.0312	15.7651	169.924	67.6972	46.1113	140.616	66.9555	25.0364	
1	0.00833333	112.905	44.6581	26.8164	97.0462	36.9277	9.00992	82.7967	30.1641	-20.1877	70.5636	22.2714	-35.4398	136.719	54.8878	-42.5262	130.215	54.1523	-71.1593	130.774	51.6458	-96.0699	162.67	61.4035	-41.4554	165.766	63.4017	-74.1218	171.976	62.396	-103.599	182.208	56.5532	-33.3121	195.81	58.1392	-51.4539	202.534	57.7441	-81.1396	200.447	42.9981	-11.2746	218.275	43.7957	-28.1348	231.224	42.7738	-46.4695	173.424	61.4143	15.671	169.298	66.52	45.6098	139.694	67.5235	21.6365	
2	0.0166667	110.286	45.5435	31.6503	96.5755	37.3992	6.24224	80.4723	30.8655	-19.6369	72.8485	23.4471	-37.4571	136.312	55.5713	-43.2792	128.681	54.529	-67.6242	130.483	52.8364	-92.9893	162.67	62.9127	-46.6996	164.501	64.0948	-73.9117	171.632	62.777	-105.139	183.819	56.6202	-31.5528	190.91	58.7904	-52.8277	201.918	57.2142	-80.1454	200.189	45.0231	-12.5661	216.142	42.9111	-26.3676	229.095	43.1416	-42.9828	173.767	62.1885	14.4519	172.115	67.7488	43.1518	140.696	68.6285	23.1614	
3	0.025	109.844	44.6626	28.5547	94.0878	36.7363	8.72595	81.6451	29.6892	-21.0721	70.848	21.4824	-38.1309	134.334	54.6764	-41.4044	129.237	53.1506	-71.8678	131.949	51.8945	-94.6159	166.386	61.9229	-43.9121	168.711	63.125	-74.191	173.773	61.0721	-102.825	182.659	57.6107	-33.0963	193.346	59.5147	-56.1577	200.893	56.6884	-81.0408	199.734	44.3239	-11.3992	214.188	42.9135	-25.2003	232.262	42.8787	-45.7022	171.073	63.5713	13.8046	169.955	65.4661	45.6656	137.627	66.7003	18.9878	
4	0.0333333	108.627	46.5091	26.7877	94.9735	37.7158	7.43607	80.5512	30.9439	-19.7228	71.1712	22.2964	-39.0852	135.745	56.4956	-45.3002	128.635	55.3453	-68.9596	131.8	52.5284	-94.0551	161.058	62.3314	-41.5278	166.371	63.2498	-74.6607	170.105	62.4606	-101.907	180.865	55.7454	-29.0596	190.537	59.8361	-57.6211	201.34	58.2971	-82.578	199.714	43.466	-8.7164	216.487	44.6917	-29.036	232.005	42.4093	-45.9555	170.823	63.3401	16.9291	172.548	67.9427	45.8465	141.932	67.5695	23.5767	
5	0.0416667	109.692	45.728	25.9451	97.1715	37.2292	6.93787	82.5007	30.1433	-15.4352	72.1255	22.8348	-35.4883	133.019	55.751	-43.7105	133.05	54.9701	-71.3029	125.802	53.1138	-96.9868	163.948	62.3252	-41.3393	168.589	64.0276	-70.6049	169.743	62.4123	-100.25	181.042	57.0525	-32.5166	193.019	59.8457	-53.5435	198.577	57.5047	-79.0743	202.782	44.381	-11.1097	213.428	44.429	-26.5925	234.243	44.3336	-45.6447	175.816	62.1756	15.2949	170.658	66.4538	42.7657	142.628	67.2606	19.8369	
6	0.05	112.446	44.1462	27.615	94.0473	37.6722	8.65976	78.2631	30.9309	-17.6414	68.5122	22.5132	-34.0334	134.864	55.2049	-43.5159	128.271	54.334	-71.076	131.61	52.4932	-95.0646	161.81	62.7495	-42.3398	166.597	63.5011	-70.6763	171.116	61.8822	-101.726	185.511	56.9059	-30.9379	194.495	58.9309	-53.0952	202.419	57.4499	-77.7339	199.775	43.3393	-9.78473	218.551	42.6845	-26.6294	234.563	43.0644	-45.8108	172.227	63.3	17.7558	168.331	65.9232	45.0844	140.66	66.1415	20.6626	
7	0.0583333	110.369	43.405	31.4311	94.4711	36.6083	7.89518	79.7983	29.6992	-17.0866	69.0889	22.3984	-36.513	132.911	55.0321	-44.0392	131.824	52.5598	-72.8513	129.641	52.0012	-97.5888	164.283	61.589	-43.9949	167.285	62.5291	-72.201	175.05	61.6126	-105.035	186.412	55.7128	-31.5987	195.968	58.1829	-53.9783	199.956	57.4834	-78.2127	199.652	43.4006	-8.14508	214.463	43.117	-24.6245	234.233	43.8965	-42.3214	172.186	64.1528	13.4103	168.072	66.7592	47.0101	137.367	66.7075	22.9491	
8	0.0666667	113.014	42.859	26.2118	93.9587	35.7911	7.66757	81.4872	28.9716	-15.9937	69.3509	21.0884	-34.8241	134.678	53.7781	-45.8241	130.067	52.8454	-71.5844	130.772	51.5694	-93.216	164.186	61.3583	-43.0923	168.112	61.8139	-74.5964	170.674	60.8694	-99.8222	181.648	55.5786	-28.8517	191.587	57.57	-52.4358	202.305	57.042	-80.8039	201.296	44.1179	-9.19027	214.835	42.8765	-27.5534	233.762	41.232	-39.5013	175.304	64.0456	15.5291	171.031	66.1822	44.2502	139.963	65.5103	23.9188	
9	0.075	110.707	43.8752	31.1094	94.3928	35.4046	7.39305	80.7656	29.6726	-15.7621	69.6218	22.6453	-36.3868	137.566	54.2829	-45.1803	129.41	51.8424	-67.6809	130.682	50.4374	-95.6849	162.039	62.0879	-45.5976	168.108	61.7744	-73.948	170.266	61.518	-100.387	183.509	55.1566	-28.3471	191.38	57.2541	-52.2619	201.093	56.4419	-79.0526	204.077	43.3848	-7.92649	216.527	42.7577	-25.8699	231.323	43.2652	-42.6243	170.695	61.0855	17.2896	171.953	64.7539	43.5591	142.543	66.9545	25.2873	
10	0.0833333	114.806	43.1581	28.5858	93.5639	36.2493	5.77541	78.7986	28.5193	-17.0869	71.4052	20.9514	-37.5432	136.138	53.4067	-41.1147	130.271	51.3716	-71.5297	134.32	50.7225	-92.9299	165.352	60.0384	-44.249	170.723	61.3693	-69.4378	173.415	60.0887	-100.202	186.751	55.0336	-31.2405	193.797	57.0503	-52.3952	202.38	55.9725	-78.4659	205.505	41.6814	-7.90559	216.97	41.8455	-25.9521	234.437	42.446	-45.1227	171.786	60.6006	19.0475	171.035	65.7229	47.1532	142.519	63.6142	25.6233	
11	0.0916667	113.166	42.7417	32.0177	99.2222	35.716	7.22951	81.1026	28.7633	-21.0407	70.1996	21.1134	-39.8047	134.899	53.3284	-44.241	132.851	52.2838	-71.5469	132.075	49.9572	-96.6068	162.755	59.7418	-42.1286	169.836	61.8146	-71.9628	170.803	61.1548	-101.92	186.176	55.5472	-31.0733	195.266	56.8997	-52.5671	202.45	55.5072	-81.3856	203.114	43.4178	-13.419	220.114	42.4504	-28.2463	236.017	40.9197	-43.2964	175.615	60.9237	13.757	171.38	64.9158	44.6994	139.989	64.024	20.0555	
12	0.1	111.575	42.8439	30.263	98.6167	35.1944	6.39276	83.1894	27.8955	-16.4005	72.7334	21.1616	-36.2441	134.681	54.2001	-46.6137	133.677	51.7835	-71.5264	129.434	49.7497	-92.5803	163.744	61.0584	-47.0525	172.573	60.6617	-74.3603	174.531	59.7117	-102.085	185.79	55.3347	-32.8374	197.99	56.9458	-55.6983	201.615	56.2442	-81.6551	205.72	43.6015	-11.5792	218.342	42.4104	-28.0142	233.998	41.2493	-44.9824	174.102	62.6727	14.3633	171.782	63.7171	43.6032	140.294	65.9825	23.3173	
13	0.108333	115.759	43.1156	27.366	97.3582	35.3943	5.2449	84.417	29.5641	-18.7702	72.6442	21.6176	-35.5028	138.644	53.7831	-44.1407	134.97	52.8045	-71.5365	131.18	50.929	-98.4316	168.171	60.7798	-42.0927	171.707	61.695	-70.5562	176.171	60.6252	-104.515	188.878	55.8088	-32.9664	192.04	57.297	-54.9876	203.313	56.2229	-77.6557	205.264	42.3999	-8.04147	220.795	41.3611	-28.055	231.746	41.4377	-42.7231	173.103	61.9377	17.2062	172.145	64.6257	42.4321	139.623	66.7304	23.0257	
14	0.116667	114.011	42.4592	27.5053	94.5831	35.1396	7.56337	83.6321	28.9114	-18.2955	72.0065	21.8505	-40.8114	136.355	54.3213	-47.1898	135.421	51.3824	-73.4243	130.692	49.8658	-95.3701	164.459	59.6581	-44.2778	172.539	60.5419	-69.3301	175.489	59.2737	-103.116	189.425	54.4016	-30.7006	196.765	57.1725	-56.6641	204.229	55.1147	-82.058	204.363	40.9796	-8.71571	221.485	40.5248	-22.6412	236.387	40.1997	-43.5912	176.954	60.6747	16.9414	170.066	64.9232	44.4456	141.573	63.9143	20.0412	
15	0.125	113.771	40.1101	28.2928	98.6365	31.4969	7.85277	83.8376	25.6056	-16.207	74.914	18.2629	-35.3904	137.063	50.3209	-44.6995	133.653	47.2046	-71.9876	130.797	46.1489	-94.3364	167.372	56.1487	-44.7455	170.168	56.7617	-72.8421	174.314	55.7847	-100.575	186.428	51.0746	-31.6094	199.731	52.7969	-49.9801	207.964	51.2185	-78.2013	206.619	37.9164	-7.74866	222.086	35.8966	-22.6563	236.543	35.3805	-41.4039	179.209	58.7954	19.48	175.614	62.465	44.4465	142.597	60.7433	24.8416	
16	0.133333	116.424	35.7667	30.9352	96.6241	28.6124	7.99324	86.2956	21.7787	-19.1458	74.1345	14.1575	-36.6751	136.956	45.7585	-44.305	132.085	42.9224	-69.3388	134.65	40.9356	-95.5303	165.401	51.9966	-40.3119	169.815	51.5824	-68.6863	179.003	49.4997	-97.4904	185.327	45.1457	-26.038	197.48	46.9161	-52.6815	206.246	45.386	-78.527	205.349	33.0227	-4.32075	221.09	29.3237	-25.2447	235.977	27.2888	-42.1772	176.264	55.6955	20.515	173.591	59.9278	48.7969	142.647	57.0993	26.8046	
17	0.141667	111.894	32.3677	30.1704	98.3525	23.0113	6.36395	81.7777	16.5721	-14.5493	72.4775	9.84512	-32.0407	138.532	38.9133	-43.5487	134.803	35.9682	-68.572	133.972	32.6338	-91.66	167.672	44.0968	-41.9112	171.911	43.3759	-70.3126	174.289	41.4462	-99.2141	184.147	38.8969	-28.3541	198.982	38.0584	-52.5882	203.489	35.1877	-75.4779	204.1	26.5511	-7.63923	220.513	20.6538	-23.4896	237.098	17.4197	-36.0885	175.984	50.3136	21.1076	170.903	55.4698	51.0018	138.073	52.3446	26.2917	
